<svg xmlns="http://www.w3.org/2000/svg" width="212.293" height="209.824" viewBox="0 0 212.293 209.824">
  <g id="_8" data-name="8" transform="translate(-16 -16.8)">
    <path id="Path_1" data-name="Path 1" d="M221.593,35.49,186.328,17.858a11.233,11.233,0,0,0-9.521,0L141.542,35.49a10.7,10.7,0,0,0-5.642,9.521v5.995l-9.169-4.937a9.877,9.877,0,0,0-9.874,0l-9.169,5.29V45.364a10.393,10.393,0,0,0-5.995-9.521L66.428,18.211a11.233,11.233,0,0,0-9.521,0L21.642,35.843C18.116,37.253,16,41.133,16,45.012V85.566a10.393,10.393,0,0,0,5.995,9.521L51.265,109.9v23.98L21.995,148.69A9.563,9.563,0,0,0,16,157.859v40.554a10.393,10.393,0,0,0,5.995,9.521L57.26,225.567a11.233,11.233,0,0,0,9.521,0l35.265-17.632a10.62,10.62,0,0,0,5.995-9.521v-5.995l9.169,4.937a9.877,9.877,0,0,0,9.874,0l9.169-4.937v5.995a10.393,10.393,0,0,0,5.995,9.521l35.265,17.632a11.233,11.233,0,0,0,9.521,0L222.3,207.934a10.62,10.62,0,0,0,5.995-9.521V157.859a10.393,10.393,0,0,0-5.995-9.521l-29.975-14.459V109.9l29.27-14.811a10.62,10.62,0,0,0,5.995-9.521V45.012A10.393,10.393,0,0,0,221.593,35.49Zm-41.26-11.285a4.893,4.893,0,0,1,3.174,0L216.3,40.78l-32.8,16.574a4.893,4.893,0,0,1-3.174,0l-32.8-16.574Zm-37.38,22.217,34.207,16.927c.353,0,.705.353,1.058.353v9.521l-35.265-18.69ZM120.031,52.77a2.645,2.645,0,0,1,3.174,0L181.038,83.1,123.2,113.425a2.645,2.645,0,0,1-3.174,0L62.2,83.1ZM65.37,73.576V64.055c.353,0,.705-.353,1.058-.353l34.207-16.927v8.464Zm-4.937-49.37a4.893,4.893,0,0,1,3.174,0L96.4,40.78l-32.8,16.574a4.893,4.893,0,0,1-3.174,0L27.285,40.78ZM25.169,88.74a3.084,3.084,0,0,1-2.116-3.174V46.422L57.26,63.349c.353,0,.705.353,1.058.353V77.1l-1.411.705a11.117,11.117,0,0,0-5.642,9.521V102.14ZM75.95,153.627V143.4L96.4,153.627l-34.559,17.28-34.559-17.28,32.8-16.574a2.12,2.12,0,0,1,1.411-.353c.705,0,1.058,0,1.411.353l5.995,2.821v13.753Zm-50.781,47.96a3.084,3.084,0,0,1-2.116-3.174V159.269L58.318,176.9v41.612Zm73.35,0L65.37,218.514V176.9l35.265-17.632v39.144A3.084,3.084,0,0,1,98.519,201.587Zm9.169-17.28V157.859a10.393,10.393,0,0,0-5.995-9.521l-25.743-12.7v-6.7a3.7,3.7,0,0,1,1.763-3.174l13.753-7.406-3.174-6.348L74.539,119.42a10.314,10.314,0,0,0-5.642,9.521v3.174l-2.469-1.058a9.37,9.37,0,0,0-8.111-.353V88.74l58.539,30.68c.353.353,1.058.353,1.411.705v69.824Zm17.632,5.642V120.125a2.674,2.674,0,0,0,1.411-.705L185.27,88.74v41.612a10.712,10.712,0,0,0-8.111.353l-2.469,1.411v-3.174a11.117,11.117,0,0,0-5.642-9.521L155.3,112.014l-3.174,6.348,13.753,7.406a3.7,3.7,0,0,1,1.763,3.174v6.7L141.895,148.69a10.62,10.62,0,0,0-5.995,9.521V184.66Zm56.423-19.043-34.559-17.28L167.638,143.4v10.227h7.053V139.874l5.642-2.821a2.12,2.12,0,0,1,1.411-.353c.705,0,1.058,0,1.411.353l32.8,16.574Zm-36.675,30.68a3.084,3.084,0,0,1-2.116-3.174V159.269L178.217,176.9v41.612Zm73.35,0L185.27,218.514V176.9l35.265-17.632v39.144A3.084,3.084,0,0,1,218.419,201.587Zm0-112.847-26.1,13.4V87.329a11.117,11.117,0,0,0-5.642-9.521L185.27,77.1V63.7c.353,0,.705-.353,1.058-.353l34.207-16.927V85.566A3.084,3.084,0,0,1,218.419,88.74Z" fill="#027dbf"/>
  </g>
</svg>
