<svg xmlns="http://www.w3.org/2000/svg" width="183.212" height="209.82" viewBox="0 0 183.212 209.82">
  <path id="_5" data-name="5" d="M226.232,65.452,145.057,19.924a10.556,10.556,0,0,0-10.235,0L53.647,65.452A10.174,10.174,0,0,0,48,74.628v97.763a10.532,10.532,0,0,0,5.294,9.176L134.469,227.1a10.556,10.556,0,0,0,10.235,0l81.175-45.529a10.532,10.532,0,0,0,5.294-9.176V74.628A9.576,9.576,0,0,0,226.232,65.452ZM192.7,54.511l8.47,4.588-8.47,5.647ZM164.469,38.982,180.7,48.158l-16.235,8.47ZM157.41,60.511l-10.588,5.647-3.529-1.765a7.209,7.209,0,0,0-7.059.353L111.175,80.275a6.934,6.934,0,0,0-3.176,6V97.922L90.352,88.04V72.158l25.058-15.529,3.529,1.765a7.475,7.475,0,0,0,6.706,0L157.41,41.1ZM115.058,86.628,140.116,71.1l3.529,1.765a7.475,7.475,0,0,0,6.706,0L185.645,53.1V68.982l-18,11.294-3.529-1.765a7.209,7.209,0,0,0-7.059.353L132,94.393a6.934,6.934,0,0,0-3.176,6v9.176L114.7,101.8V86.628Zm26.47,28.235a3.206,3.206,0,0,1-3.529,0l-1.765-1.059V100.746l25.058-15.529,3.529,1.765a7.209,7.209,0,0,0,7.059-.353L207.174,64.04V78.158ZM213.88,66.511l7.059,3.882-7.059,3.882ZM138,25.923a3.206,3.206,0,0,1,3.529,0l14.117,8.118L122.116,52.394l-3.529-1.765a7.209,7.209,0,0,0-7.059.353L86.47,66.511a6.934,6.934,0,0,0-3.176,6V84.158L58.588,70.393ZM56.823,175.215a3.706,3.706,0,0,1-1.765-3.176V97.216l12,6a4.056,4.056,0,0,1,2.118,3.176v3.176c-5.647,2.118-8.47,8.118-6.353,13.412,2.118,5.647,8.118,8.47,13.412,6.353s8.47-8.118,6.353-13.412a10.312,10.312,0,0,0-6.353-6.353v-3.176a10.4,10.4,0,0,0-6-9.529L55.059,89.452V76.393l79.41,44.47c.353.353,1.059.353,1.765.706v38.117l-30-16.235a3.706,3.706,0,0,1-1.765-3.176v-7.059c5.647-2.118,8.47-8.118,6.353-13.412s-8.118-8.47-13.412-6.353c-5.647,2.118-8.47,8.118-6.353,13.412a10.312,10.312,0,0,0,6.353,6.353v7.059a10.174,10.174,0,0,0,5.647,9.176l33.176,18v34.235l-30-16.235a3.706,3.706,0,0,1-1.765-3.176V169.215a10.978,10.978,0,0,0-5.294-9.176L86.823,152.98v-1.412a10.588,10.588,0,1,0-10.588,10.588,11.39,11.39,0,0,0,7.412-2.823L96,166.745a3.706,3.706,0,0,1,1.765,3.176V182.98a10.174,10.174,0,0,0,5.647,9.176l33.176,18v9.529ZM76.235,119.8a3.529,3.529,0,1,1-3.529-3.529A3.334,3.334,0,0,1,76.235,119.8Zm21.176,3.529a3.529,3.529,0,1,1,3.529,3.529A3.334,3.334,0,0,1,97.411,123.334ZM79.764,151.568a3.529,3.529,0,1,1-3.529-3.529A3.334,3.334,0,0,1,79.764,151.568ZM222.7,175.215l-79.41,44.47V188.979l33.176-18a10.174,10.174,0,0,0,5.647-9.176V149.1a3.392,3.392,0,0,1,2.118-3.176l15.529-7.765a10.485,10.485,0,1,0-.353-14.823,8.885,8.885,0,0,0-3.176,7.059V131.8L180.7,139.569a10.628,10.628,0,0,0-6,9.529V161.8a3.706,3.706,0,0,1-1.765,3.176l-29.647,15.882V146.627l10.235-5.294a10.485,10.485,0,1,0-.353-14.823,11.39,11.39,0,0,0-2.823,7.412v1.412l-7.059,3.529V121.569c.706,0,1.059-.353,1.765-.706l79.41-44.47v69.528l-17.294,8.823a10.485,10.485,0,1,0,.353,14.823,11.39,11.39,0,0,0,2.823-7.412v-1.412l14.117-7.059v18.353A3.706,3.706,0,0,1,222.7,175.215Zm-19.411-44.823a3.529,3.529,0,1,1,3.529,3.529A3.334,3.334,0,0,1,203.292,130.392Zm-45.882,3.529a3.529,3.529,0,1,1,3.529,3.529A3.334,3.334,0,0,1,157.41,133.922Zm45.882,28.235a3.529,3.529,0,1,1-3.529-3.529A3.334,3.334,0,0,1,203.292,162.156Z" transform="translate(-48 -18.6)" fill="#027dbf"/>
</svg>
