<svg xmlns="http://www.w3.org/2000/svg" width="359.529" height="371.529" viewBox="0 0 359.529 371.529">
  <g id="Group_64" data-name="Group 64" transform="translate(-1265.735 -10272.735)">
    <g id="Group_51" data-name="Group 51" transform="translate(14.735 587.735)">
      <circle id="Ellipse_17" data-name="Ellipse 17" cx="60.579" cy="60.579" r="60.579" transform="translate(1489.372 9685)" fill="#0072b7" opacity="0.551"/>
      <circle id="Ellipse_16" data-name="Ellipse 16" cx="174.933" cy="174.933" r="174.933" transform="translate(1251 9706.664)" fill="#00b2c2" opacity="0.158"/>
    </g>
    <g id="_4" data-name="4" transform="translate(1288.29 10332)">
      <rect id="Rectangle_32" data-name="Rectangle 32" width="24.509" height="8.17" transform="translate(137.895 36.424)" fill="#027dbf"/>
      <path id="Path_35" data-name="Path 35" d="M43.943,158.97a11.9,11.9,0,0,0,8.17,11.438v29.411h8.17V170.408a11.9,11.9,0,0,0,8.17-11.438V104.233a18.135,18.135,0,0,0,4.085-8.987l35.538-35.538a11.646,11.646,0,0,0,9.8,4.9h2.451L103.991,80.949a15.9,15.9,0,0,0-14.3,17.973,15.193,15.193,0,0,0,4.085,8.987V131.6a16.152,16.152,0,0,0,0,21.241v18.382a10.783,10.783,0,0,0,2.859,7.761l-7.761,6.944v13.889h8.17V189.2l6.127-6.127a8.391,8.391,0,0,0,4.493,0l6.127,6.127v10.621h8.17V185.93l-6.944-6.944a12.9,12.9,0,0,0,2.859-7.761V153.251a16.152,16.152,0,0,0,0-21.241V108.318a18.135,18.135,0,0,0,4.085-8.987l8.17-8.17V207.989H105.625A12.036,12.036,0,0,0,93.37,220.243V232.5H64.776a12.036,12.036,0,0,0-12.255,12.255v16.339H248.595V244.752A12.036,12.036,0,0,0,236.34,232.5H207.746V220.243a12.036,12.036,0,0,0-12.255-12.255H170.982v-8.17h-8.17v8.17H138.3v-125l12.255-12.255,12.255,12.255V158.97a14.514,14.514,0,0,0-.817,4.085h-8.987l-9.4,9.4,5.719,5.719,6.944-6.944h8.987l1.634,1.634v8.987l-6.944,6.944,5.719,5.719,9.4-9.4v-8.987a11.125,11.125,0,0,0,8.578-3.676l13.48-13.48A15.9,15.9,0,0,0,211.423,141a15.193,15.193,0,0,0-4.085-8.987V108.318c6.127-6.536,5.31-16.748-1.225-22.875a18.135,18.135,0,0,0-8.987-4.085L180.786,65.018h2.042a12.182,12.182,0,0,0,9.8-4.9L228.17,95.655a15.193,15.193,0,0,0,4.085,8.987V158.97a11.9,11.9,0,0,0,8.17,11.438v29.411h8.17V170.408a11.9,11.9,0,0,0,8.17-11.438V104.233c6.127-6.536,5.31-16.748-1.225-22.875a18.135,18.135,0,0,0-8.987-4.085L195.083,26.212A12.674,12.674,0,0,0,182.829,16H117.471a12.674,12.674,0,0,0-12.255,10.212L54.155,77.273a15.9,15.9,0,0,0-14.3,17.973,15.193,15.193,0,0,0,4.085,8.987Zm196.073,85.782v8.17H60.283v-8.17a3.859,3.859,0,0,1,4.085-4.085H235.932A3.859,3.859,0,0,1,240.017,244.752Zm-40.849-24.509V232.5H101.131V220.243a3.859,3.859,0,0,1,4.085-4.085h89.867A3.859,3.859,0,0,1,199.168,220.243ZM56.2,163.055a3.859,3.859,0,0,1-4.085-4.085V109.543c1.225,0,2.859.408,4.085.408s2.859-.408,4.085-.408V158.97A3.859,3.859,0,0,1,56.2,163.055ZM105.216,51.13,70.495,85.851a16.757,16.757,0,0,0-6.536-6.536l41.257-41.257Zm0,38.4a8.17,8.17,0,1,1-8.17,8.17A8.194,8.194,0,0,1,105.216,89.528Zm0,61.273a8.17,8.17,0,1,1,8.17-8.17A8.194,8.194,0,0,1,105.216,150.8Zm0-24.509c-1.225,0-2.859.408-4.085.408V113.22a13.922,13.922,0,0,0,8.17,0V126.7C108.076,126.7,106.442,126.291,105.216,126.291Zm-4.085,44.934V158.562a13.923,13.923,0,0,0,8.17,0v12.663a4.085,4.085,0,0,1-8.17,0Zm18.382-81.289a16.757,16.757,0,0,0-6.536-6.536l18.382-18.382h13.072Zm59.231,9.8a15.193,15.193,0,0,0,4.085,8.987v23.692a18.135,18.135,0,0,0-4.085,8.987l-8.17,8.17V91.161Zm16.339,26.552c-1.225,0-2.859.408-4.085.408V113.22a13.922,13.922,0,0,0,8.17,0V126.7C197.943,126.7,196.309,126.291,195.083,126.291Zm-17.565,40.44a3.949,3.949,0,0,1-5.719,0l-.817-.817a3.949,3.949,0,0,1,0-5.719l9.8-9.8a16.757,16.757,0,0,0,6.536,6.536ZM195.083,150.8a8.17,8.17,0,1,1,8.17-8.17A8.194,8.194,0,0,1,195.083,150.8Zm8.17-53.1a8.17,8.17,0,1,1-8.17-8.17A8.194,8.194,0,0,1,203.253,97.7ZM187.322,83.4a16.757,16.757,0,0,0-6.536,6.536L155.868,65.018H168.94ZM229.8,85.851,195.083,51.13V38.058L236.34,79.315A16.757,16.757,0,0,0,229.8,85.851Zm14.3,77.2a3.859,3.859,0,0,1-4.085-4.085V109.543a13.922,13.922,0,0,0,8.17,0V158.97A3.859,3.859,0,0,1,244.1,163.055Zm8.17-69.443a8.17,8.17,0,1,1-8.17-8.17A8.194,8.194,0,0,1,252.271,93.612ZM113.386,28.255a3.859,3.859,0,0,1,4.085-4.085h65.358a3.859,3.859,0,0,1,4.085,4.085V52.764a3.859,3.859,0,0,1-4.085,4.085H117.471a3.859,3.859,0,0,1-4.085-4.085ZM56.2,85.443a8.17,8.17,0,1,1-8.17,8.17A8.194,8.194,0,0,1,56.2,85.443Z" fill="#05080a"/>
    </g>
  </g>
</svg>
