<svg xmlns="http://www.w3.org/2000/svg" width="321.369" height="165.732" viewBox="0 0 321.369 165.732">
  <g id="HongKongAirportlogo" transform="translate(1359.47 -591.516)">
    <g id="g13234" transform="translate(-1359.47 591.516)">
      <path id="path13136" d="M233.193,83.067a34.625,34.625,0,0,0-5.68,3.045,47.775,47.775,0,0,0,6.313-15.784c1.229-6.364,1.1-17.134-12.085-17.134-8.941,0-19.128,6.207-25.2,10.517A90.668,90.668,0,0,0,206.526,45.5c6.369-16.435,6.4-38.108-20.318-39.514C116.57,2.315,2.912,105.52,2.912,105.52H62.934c55.778-46.984,105.987-73.429,118.2-60.776,7.878,8.153-2.5,31.848-24.918,61.665C187.34,79.2,210.191,68.278,217.549,76c4.3,4.509.335,18.275-8.436,30.377a58.961,58.961,0,0,1,9.87-7.269c7.99-4.587,18.661-8.528,23.093-4.676,2.7,2.36,2.514,7.056.818,12.346a31.832,31.832,0,0,0,7.226-13.854c2.253-10.733-4.73-15.037-16.927-9.856" transform="translate(-2.912 -5.887)" fill="#96d2c3"/>
      <rect id="rect13138" width="0.913" height="50.351" transform="translate(152.583 115.195)" fill="#010101"/>
      <path id="path13140" d="M54.745,68.989V70.5c.615-.013,3.6-.073,8.1-.335L63,70.16v2.4H52.847v1.518h8.4l-.41.253a69.816,69.816,0,0,1-8.474,4.377v1.652A66.593,66.593,0,0,0,62.774,74.9L63,74.76V80.2H55.509a.77.77,0,0,0-.764.758v8.569a.767.767,0,0,0,.764.756H71.972a.756.756,0,0,0,.764-.756V80.962a.756.756,0,0,0-.764-.758H64.5V74.781l.2.136a68.08,68.08,0,0,0,10.429,5.455V78.727a67.242,67.242,0,0,1-8.492-4.391l-.428-.253h8.436V72.565H64.5V70.071l.13-.011c2.605-.168,5.215-.374,7.727-.613V67.92c-9.161.873-16.366,1.043-17.616,1.069M56.272,81.72H71.227v2.764H56.272Zm0,4.283H71.227v2.769H56.272Z" transform="translate(39.733 47.608)" fill="#010101"/>
      <path id="path13142" d="M24.336,86.986a.759.759,0,0,0-.764.76v4.792a.755.755,0,0,0,.764.758h5.829a.756.756,0,0,0,.762-.758V87.746a.757.757,0,0,0-.762-.76H24.336Zm.764,1.52H29.42v3.276H25.1Z" transform="translate(14.904 64.05)" fill="#010101"/>
      <path id="path13144" d="M23.571,93.11V94.7c.337-.106,7.114-2.255,7.3-2.313V90.8c-.335.108-7.114,2.255-7.3,2.313" transform="translate(14.904 67.337)" fill="#010101"/>
      <path id="path13146" d="M22.576,83.174a.758.758,0,0,0-.764.756V103.9a.754.754,0,0,0,.764.752H41.739a.767.767,0,0,0,.764-.752V83.93a.769.769,0,0,0-.764-.756ZM37.158,84.69h3.818v18.449H23.321V84.69h8.53l.654,2.5H25.092v1.514h7.787l2.065,7.969-.019.047a11.644,11.644,0,0,1-2.253,2.924v2.045a9.951,9.951,0,0,0,2.663-2.6l.188-.233.128.531a3.092,3.092,0,0,0,2.719,2.354h.877V100.1H38.37c-.371,0-.95-.5-1.134-1.142,0,0-.54-2.08-.54-2.08l.037-.047a28.252,28.252,0,0,0,2.309-6.557H37.348a28.421,28.421,0,0,1-1.134,3.695l-.169.4-1.451-5.66H39.21V87.193h-.987l-1.065-2.5Zm-3.615,0h1.844l1.045,2.5H34.2Z" transform="translate(13.387 60.763)" fill="#010101"/>
      <path id="path13148" d="M62.45,83.16c-.076.11-2.309,3.186-2.309,3.186a.76.76,0,0,0-.149.443.744.744,0,0,0,.093.343.734.734,0,0,0,.67.419h2.084l-3.3,4.313-2.179-3.037h2.067V87.311h-2.2V83.16H55.723v4.151H53.376v1.516H55.09L55.034,89a65.1,65.1,0,0,1-2.924,8.613h1.659c.577-1.4,1.153-2.954,1.674-4.63l.279.039V104.68h1.509V91.261s1.695,2.35,1.825,2.55c.186-.13,1.155-.816,1.155-.816H65.07a.751.751,0,0,0,.745-.756V89.973H64.307v1.51H61.735l3.241-4.233a.792.792,0,0,0,.149-.458l-.075-.335a.751.751,0,0,0-.67-.423h-2.14s1.844-2.546,2.067-2.874H62.45Z" transform="translate(39.514 60.751)" fill="#010101"/>
      <path id="path13150" d="M61.943,82.758c.074.328,2.849,12.117,2.849,12.117H56.149V96.39h2.4l-.913,5.019c-.352,1.721-1.078,2.045-1.767,2.073V105c1.209-.043,2.7-.659,3.259-3.278l.391-2.019.168.149a14.379,14.379,0,0,0,2.831,1.782c.095-.2.579-1.171.67-1.36a9.286,9.286,0,0,1-3.315-2.382l-.037-.047L60.1,96.39h5.066l.02.106c.5,1.939.857,3.209,1.209,4.237l.019.091-.073.058a15.75,15.75,0,0,1-4.267,2.466v1.611a17.749,17.749,0,0,0,4.8-2.557l.13-.1.074.149a3.8,3.8,0,0,0,3.781,2.561H71.87v-1.516H70.864c-1.173,0-1.862-.324-2.626-2.145l-.037-.088.073-.065a12.4,12.4,0,0,0,2.665-3.674H69.244A11.78,11.78,0,0,1,67.808,99.5l-.168.186-.913-3.3H71.87V94.875H69.784l-.354-1.507h1.676a.757.757,0,0,0,.764-.756V90.349H70.343v1.507h-2.57l3.241-4.229a.706.706,0,0,0,.168-.462l-.075-.335a.758.758,0,0,0-.689-.423H68.275s1.844-2.527,2.106-2.9H68.5c-.074.11-2.328,3.213-2.328,3.213a.771.771,0,0,0-.129.447.74.74,0,0,0,.075.343.751.751,0,0,0,.669.412h2.1l-3.185,4.157s-2.158-9.113-2.2-9.319H61.943ZM66,93.36l.242.007h1.639l.354,1.507H66.357L66,93.36Z" transform="translate(42.759 60.404)" fill="#010101"/>
      <path id="path13152" d="M37.7,83.174a.81.81,0,0,0-.54.222.8.8,0,0,0-.2.535v20.737h1.51V99.019H39.99a3.312,3.312,0,0,0,2.866-1.168,2.769,2.769,0,0,0,.466-1.648,6.058,6.058,0,0,0-.389-2,42.125,42.125,0,0,0-1.862-3.835l-.02-.05,1.862-6.17s.02-.222.02-.222a.675.675,0,0,0-.149-.451.711.711,0,0,0-.6-.305H37.7Zm.764,1.516h2.7L39.5,90.182l-.037.214a.809.809,0,0,0,.093.363,40.981,40.981,0,0,1,1.937,3.946,4.685,4.685,0,0,1,.317,1.488,1.355,1.355,0,0,1-.2.775,1.916,1.916,0,0,1-1.618.531H38.461V84.69Z" transform="translate(26.443 60.763)" fill="#010101"/>
      <path id="path13154" d="M44.129,89.53h9.906V88.014H44.129Zm-2.477,2.382v1.516h6.7v3.438c0,1.542-.242,2.091-1.546,2.091h-.818v1.516h.818c3.054,0,3.054-2.527,3.054-3.609V93.426h6.649V91.91H41.652Zm10.895,2.929c.577,1.346,1.751,3.877,2.719,5.66H57c-.8-1.4-2.065-4.008-2.794-5.66Zm-9.573,0c-.745,1.691-1.993,4.259-2.812,5.66h1.749c.95-1.767,2.142-4.3,2.7-5.66Z" transform="translate(29.211 64.937)" fill="#010101"/>
      <path id="path13156" d="M44.537,82.758a28.113,28.113,0,0,1-4.8,5.846c.149.156.857.974,1.006,1.142.149-.149.857-.808.857-.808l.093.054c.412.263,1.453.939,2.253,1.561l.114.095-.093.11c-.615.618-1.268,1.225-1.937,1.812v1.972a29.085,29.085,0,0,0,6.963-7.716l.114-.186.13.183a33.165,33.165,0,0,0,7.652,7.686V92.6c-.985-.79-1.955-1.63-2.848-2.5l-.095-.091.074-.095a17.26,17.26,0,0,0,2.868-5.55c0-.026.149-.557.223-.829h-5.68v1.516h3.594l-.093.194a15.578,15.578,0,0,1-1.955,3.546l-.093.123-.114-.117a18.947,18.947,0,0,1-2.831-3.732l-.02-.054.188-.5s.2-.724.277-.974H45.855s.279-.561.372-.775H44.537Zm.466,6.7c-.708-.557-1.6-1.157-2.216-1.557l-.129-.084.95-1.127.093.065c.521.328,1.492.968,2.253,1.553l.114.088-.97,1.145Zm1.844-2.373c-.726-.557-1.585-1.13-2.179-1.52l-.13-.08.317-.428.074,0h3.3l-.095.2a19.458,19.458,0,0,1-1.078,1.8l-.095.119-.112-.088Z" transform="translate(28.84 60.404)" fill="#010101"/>
      <path id="path13158" d="M72.624,83.164a.77.77,0,0,0-.762.76v6.69a.768.768,0,0,0,.762.76H84.042a.754.754,0,0,0,.743-.76v-6.69a.754.754,0,0,0-.743-.76Zm.765,1.514H83.28v1.829H73.389Zm0,3.349H83.28v1.825H73.389Z" transform="translate(56.548 60.754)" fill="#010101"/>
      <path id="path13160" d="M69.883,83.137v3.317H67.462v1.652h2.421v9.155s-2.347,1.427-2.4,1.466v1.931c.186-.119,6.425-3.9,6.479-3.939V94.784c-.186.117-2.421,1.473-2.421,1.473V88.106H73.96V86.454H71.539V83.137H69.883Z" transform="translate(52.753 60.731)" fill="#010101"/>
      <path id="path13162" d="M72.454,88.37v1.516h1.806l-.093.2a32.324,32.324,0,0,1-4.116,6.224h2.1a35.951,35.951,0,0,0,2.179-3.132l.039-.065h2.719l-.114.2a47.417,47.417,0,0,1-4.563,6.885H74.5a45.664,45.664,0,0,0,4.378-7.006l.019-.08h2.98l-.093.194a46.7,46.7,0,0,1-3.948,6.893h1.993a48.389,48.389,0,0,0,3.8-7l.037-.088h2.367v4.136c0,.942-.615,1.419-1.844,1.419h-.913v1.516h.913c2.067,0,3.352-1.125,3.352-2.935V92.35a.754.754,0,0,0-.743-.76H75.254l.818-1.7.1,0H88.158V88.368h-15.7Z" transform="translate(54.987 65.242)" fill="#010101"/>
      <path id="path13164" d="M70.552,75.1c-.484,1.654-1.693,5.6-3.09,8.993H69.1c1.527-3.846,2.754-8.083,3.017-8.993Z" transform="translate(52.753 53.803)" fill="#010101"/>
      <path id="path13166" d="M67.812,73.006c1.192,1.11,2.812,2.7,4.153,4.2V74.959c-1.695-1.775-3.464-3.4-4.153-4.015Z" transform="translate(53.055 50.216)" fill="#010101"/>
      <path id="path13168" d="M81.729,67.98v2.561H77.054V67.98H75.529v2.561h-4v1.52h4v3.222H70.482V76.8h4.542l-.149.212a32.725,32.725,0,0,1-4.339,5.151v2.067a37.821,37.821,0,0,0,2.849-2.857l.242-.264v6.036a2.846,2.846,0,0,0,.838,2.125,3.911,3.911,0,0,0,2.626.961h8.7a.757.757,0,0,0,.764-.756V86.3h-1.51v2.419H77.071a2.552,2.552,0,0,1-1.564-.538,1.407,1.407,0,0,1-.371-1.034V85.479h8.381a.759.759,0,0,0,.762-.762V80.085l.242.289a38.495,38.495,0,0,0,3.725,3.855V82.166a33.12,33.12,0,0,1-4.358-5.151l-.129-.212H88.3V75.284H83.235V72.062h4.023v-1.52H83.235V67.98H81.729Zm-4.673,4.082h4.675v3.222H77.056Zm-1.9,7.172a21.08,21.08,0,0,0,1.6-2.363l.056-.069h5.161l.037.069c.242.4.764,1.24,1.6,2.363l.168.218H75.008Zm-.019,1.734h7.636v2.995H75.138Z" transform="translate(55.358 47.66)" fill="#010101"/>
      <path id="path13170" d="M67.812,70.185c1.173,1.1,2.794,2.684,4.153,4.2V72.136c-1.695-1.771-3.464-3.4-4.153-4.013Z" transform="translate(53.055 47.783)" fill="#010101"/>
      <path id="polygon13172" d="M99.76,72.038V67.883h2.047V78.374H99.76V73.859H92.719v4.514H90.672V67.883h2.047v4.155Z" transform="translate(72.769 47.576)" fill="#010101"/>
      <path id="path13174" d="M104.33,67.743c4.619,0,6.258,2.712,6.258,5.583,0,2.181-1.285,5.429-6.258,5.429-4.954,0-6.239-3.248-6.239-5.429,0-2.872,1.622-5.583,6.239-5.583m4.209,5.47c0-2.525-1.806-3.708-4.209-3.708-2.384,0-4.19,1.183-4.19,3.708,0,2.974,2.235,3.782,4.19,3.782,1.976,0,4.209-.81,4.209-3.782" transform="translate(79.167 47.456)" fill="#010101"/>
      <path id="polygon13176" d="M117.388,78.374h-1.881l-7.3-7.85v7.85h-1.976V67.883h2.162l7.021,7.574V67.883h1.974Z" transform="translate(86.186 47.576)" fill="#010101"/>
      <path id="path13178" d="M125.142,73.11v5.5h-1.227l-.412-1.082a6.449,6.449,0,0,1-3.928,1.227c-2.682,0-5.924-1.315-5.924-5.485,0-2.8,1.676-5.528,5.866-5.528,2.421,0,5.047.892,5.568,3.533h-2.1c-.244-.535-.8-1.775-3.222-1.775-3.278,0-4.06,2.226-4.06,3.682a3.554,3.554,0,0,0,3.892,3.755c2.03,0,3.146-.706,3.632-2.179h-3.671V73.11h5.589Z" transform="translate(92.585 47.456)" fill="#010101"/>
      <path id="polygon13180" d="M132.491,67.883h2.924L130.4,72.038l5.513,6.336h-2.68l-4.321-5.125-2.237,1.862v3.263h-2.047V67.883h2.047v4.892Z" transform="translate(102.055 47.576)" fill="#010101"/>
      <path id="path13182" d="M137.5,67.743c4.6,0,6.239,2.712,6.239,5.583,0,2.181-1.283,5.429-6.239,5.429-4.973,0-6.258-3.248-6.258-5.429,0-2.872,1.637-5.583,6.258-5.583m4.19,5.47c0-2.525-1.807-3.708-4.19-3.708-2.4,0-4.209,1.183-4.209,3.708,0,2.974,2.233,3.782,4.209,3.782,1.954,0,4.19-.81,4.19-3.782" transform="translate(107.755 47.456)" fill="#010101"/>
      <path id="polygon13184" d="M150.7,78.374h-1.883l-7.3-7.85v7.85h-1.954V67.883h2.16l7,7.574V67.883H150.7Z" transform="translate(114.93 47.576)" fill="#010101"/>
      <path id="path13186" d="M158.69,73.11v5.5h-1.248l-.41-1.082a6.386,6.386,0,0,1-3.911,1.227c-2.7,0-5.941-1.315-5.941-5.485,0-2.8,1.695-5.528,5.866-5.528,2.421,0,5.066.892,5.567,3.533h-2.086c-.261-.535-.818-1.775-3.22-1.775-3.3,0-4.079,2.226-4.079,3.682a3.555,3.555,0,0,0,3.894,3.755c2.03,0,3.146-.706,3.65-2.179h-3.687V73.11h5.6Z" transform="translate(121.5 47.456)" fill="#010101"/>
      <rect id="rect13188" width="2.049" height="10.494" transform="translate(163.571 135.217)" fill="#010101"/>
      <path id="polygon13190" d="M105.066,88.986h-1.879l-7.3-7.854v7.854H93.912V78.492h2.179l7,7.578V78.492h1.972Z" transform="translate(75.563 56.725)" fill="#010101"/>
      <path id="polygon13192" d="M105.676,88.986V80.254h-4.7V78.492h11.435v1.762h-4.691v8.733Z" transform="translate(81.659 56.725)" fill="#010101"/>
      <path id="polygon13194" d="M110.451,80.254v2.44h6.33v1.76h-6.33v2.773h7.543v1.76H108.4V78.492h9.4v1.762Z" transform="translate(88.058 56.725)" fill="#010101"/>
      <path id="path13196" d="M115.312,78.492h6.313c2.477,0,4.265.564,4.265,3.132a2.962,2.962,0,0,1-2.922,3.088l3.2,4.274h-2.514L120.6,84.858h-3.239v4.129h-2.05V78.492Zm5.995,4.663c1.676,0,2.533-.248,2.533-1.488s-.857-1.473-2.533-1.473h-3.946v2.961h3.946Z" transform="translate(94.017 56.725)" fill="#010101"/>
      <path id="polygon13198" d="M134.009,88.986h-1.862l-7.319-7.854v7.854h-1.955V78.492h2.158l7.023,7.578V78.492h1.955Z" transform="translate(100.537 56.725)" fill="#010101"/>
      <path id="path13200" d="M135.21,78.492h2.348l5.082,10.494h-2.16l-1.1-2.412h-6.053l-1.1,2.412h-2.179l5.159-10.494Zm3.373,6.323-2.2-4.678-2.2,4.678h4.4Z" transform="translate(106.728 56.725)" fill="#010101"/>
      <path id="polygon13202" d="M141.177,88.986V80.254H136.5V78.492h11.435v1.762h-4.7v8.733Z" transform="translate(112.291 56.725)" fill="#010101"/>
      <rect id="rect13204" width="2.049" height="10.494" transform="translate(261.976 135.217)" fill="#010101"/>
      <path id="path13206" d="M152.848,78.353c4.619,0,6.241,2.715,6.241,5.585,0,2.183-1.268,5.427-6.241,5.427s-6.256-3.244-6.256-5.427c0-2.87,1.639-5.585,6.256-5.585m4.211,5.472c0-2.527-1.808-3.71-4.211-3.71s-4.209,1.183-4.209,3.71c0,2.972,2.235,3.779,4.209,3.779,1.957,0,4.211-.806,4.211-3.779" transform="translate(120.992 56.605)" fill="#010101"/>
      <path id="polygon13208" d="M166.09,88.986h-1.881l-7.3-7.854v7.854h-1.957V78.492h2.16l7.023,7.578V78.492h1.955Z" transform="translate(128.2 56.725)" fill="#010101"/>
      <path id="path13210" d="M167.491,78.492h2.347l5.084,10.494h-2.16l-1.1-2.412h-6.034l-1.117,2.412h-2.179l5.159-10.494Zm3.371,6.323-2.2-4.678-2.2,4.678h4.4Z" transform="translate(134.566 56.725)" fill="#010101"/>
      <path id="polygon13212" d="M179.939,87.167v1.82h-9.647V78.492h2.049v8.675Z" transform="translate(141.43 56.725)" fill="#010101"/>
      <path id="path13214" d="M95.24,89.1h2.347l5.084,10.491h-2.16l-1.1-2.412H93.359L92.24,99.595H90.061L95.24,89.1Zm3.369,6.317-2.2-4.675-2.2,4.675Z" transform="translate(72.242 65.877)" fill="#010101"/>
      <rect id="rect13216" width="2.067" height="10.491" transform="translate(177.259 154.981)" fill="#010101"/>
      <path id="path13218" d="M101.482,89.1h6.295c2.5,0,4.283.561,4.283,3.129a2.981,2.981,0,0,1-2.941,3.092l3.22,4.27h-2.514l-3.056-4.129H103.53v4.129h-2.05V89.1Zm6,4.658c1.676,0,2.533-.244,2.533-1.488,0-1.225-.857-1.469-2.533-1.469h-3.946v2.957h3.946Z" transform="translate(82.089 65.877)" fill="#010101"/>
      <path id="path13220" d="M108.832,89.1h5.848c1.769,0,4.693,0,4.693,3.216s-2.922,3.205-4.693,3.205h-3.8V99.6h-2.049V89.1Zm6.295,4.658c1.173,0,2.2-.1,2.2-1.454s-1.024-1.443-2.2-1.443h-4.246v2.9h4.246Z" transform="translate(88.429 65.877)" fill="#010101"/>
      <path id="path13222" d="M121.44,88.963c4.617,0,6.239,2.713,6.239,5.583,0,2.183-1.285,5.431-6.239,5.431-4.974,0-6.258-3.248-6.258-5.431,0-2.87,1.62-5.583,6.258-5.583m4.19,5.47c0-2.524-1.808-3.71-4.19-3.71-2.4,0-4.211,1.186-4.211,3.71,0,2.972,2.235,3.782,4.211,3.782,1.955,0,4.19-.81,4.19-3.782" transform="translate(93.905 65.755)" fill="#010101"/>
      <path id="path13224" d="M123.321,89.1h6.315c2.477,0,4.283.561,4.283,3.129a2.982,2.982,0,0,1-2.943,3.092l3.222,4.27h-2.533l-3.036-4.129H125.39v4.129h-2.067V89.1Zm6.017,4.658c1.674,0,2.514-.244,2.514-1.488,0-1.225-.838-1.469-2.514-1.469H125.39v2.957h3.948Z" transform="translate(100.924 65.877)" fill="#010101"/>
      <path id="polygon13226" d="M134.653,99.593V90.864h-4.691V89.1H141.4v1.76H136.7v8.729Z" transform="translate(106.651 65.877)" fill="#010101"/>
    </g>
  </g>
</svg>
